<svg width="42" height="42" viewBox="0 0 42 42" xmlns="http://www.w3.org/2000/svg"><g fill="none" fill-rule="evenodd"><path d="M0 0h42v42H0z" fill="none"></path><path d="M17.134 27.75c1.958 0 4.356-1.804 4.356-3.674 0-1.122-.88-1.826-2.134-1.826-2.42 0-4.356 1.782-4.356 3.674 0 1.144.946 1.826 2.134 1.826zM26.99 25c0-.616-.484-1.1-1.1-1.1-.616 0-1.1.484-1.1 1.1 0 .616.484 1.1 1.1 1.1.616 0 1.1-.484 1.1-1.1zm4 0c0-.616-.484-1.1-1.1-1.1-.616 0-1.1.484-1.1 1.1 0 .616.484 1.1 1.1 1.1.616 0 1.1-.484 1.1-1.1z" class="fill" fill="#646f8d"></path></g></svg>