<svg width="42" height="42" xmlns="http://www.w3.org/2000/svg"><g fill="none" fill-rule="evenodd"><path d="M0 0h42v42H0z" fill="none"></path><g fill="#646f8d" class="fill"><path d="M15.548 24.969c-.286-.268-.708-.41-1.205-.41-1.852 0-3.343 1.433-3.343 2.96 0 .93.723 1.481 1.642 1.481C14.148 29 16 27.535 16 26.04V13h-.452v11.969zM31.178 25.5c-.612-1.066-4.633-1.608-7.028-1.608-2.447 0-6.38.542-6.905 1.608H17c.507-1.678 3.969-2.5 7.133-2.5 3.357 0 6.73.84 7.29 2.5h-.245z" fill="#646f8d"></path></g></g></svg>