<svg xmlns="http://www.w3.org/2000/svg" width="36" height="42" viewBox="0 0 36 42"><g fill="none" fill-rule="evenodd"><path d="M0 0h36v42H0z" fill="none"></path><path d="M10 13h16v16H10z" fill="none"></path><path class="fill" fill="#646f8d" fill-rule="nonzero" d="M14 19.667c-.733 0-1.333.6-1.333 1.333s.6 1.333 1.333 1.333 1.333-.6 1.333-1.333-.6-1.333-1.333-1.333zm8 0c-.733 0-1.333.6-1.333 1.333s.6 1.333 1.333 1.333 1.333-.6 1.333-1.333-.6-1.333-1.333-1.333zm-4 0c-.733 0-1.333.6-1.333 1.333s.6 1.333 1.333 1.333 1.333-.6 1.333-1.333-.6-1.333-1.333-1.333z"></path></g></svg>