<svg xmlns="http://www.w3.org/2000/svg" width="40" height="42" viewBox="0 0 40 42"><g fill="none" fill-rule="evenodd"><path d="M0 0h40v42H0z" fill="none"></path><path class="fill" fill="#646f8d" d="M27.326 21.968c-.983 0-1.737 2.08-1.737 3.177 0 .549.182.869.502.869.755 0 1.738-2.332 1.738-3.337 0-.366-.138-.709-.503-.709zm2.171-.274l-1.166 3.703a1.013 1.013 0 0 0-.068.342c0 .183.068.298.251.298.412 0 .755-.846.983-1.418.046-.114.114-.205.252-.205.114 0 .251.068.251.228 0 .137-.114.297-.114.412-.183.434-.663 1.623-1.555 1.623-.502 0-.754-.252-.845-.64-.046-.206-.069-.343-.137-.343-.115 0-.229.228-.252.251-.32.457-.754.754-1.257.754-.64 0-1.371-.525-1.371-1.851 0-1.737 1.302-3.566 2.742-3.566.412 0 .663.137.846.435.092.137.16.251.206.251.068 0 .091-.091.16-.366.046-.183.114-.274.32-.274h.548c.183 0 .252.046.252.16 0 .046-.023.114-.046.206zm-7.108.228c-1.029 0-1.852 2.195-1.852 3.497 0 .435.183.709.526.709 1.074 0 1.851-2.514 1.851-3.429 0-.434-.114-.777-.525-.777zm-2.24-3.063l1.76-.114c.182 0 .274.092.274.229 0 .068-.023.137-.046.205l-.571 1.898c-.137.48-.206.594-.206.708 0 .046.023.069.069.069.114 0 .297-.229.64-.389.205-.091.411-.137.64-.137.891 0 1.348.731 1.348 1.531 0 2.058-1.348 3.84-2.971 3.84-.937 0-1.577-.64-1.577-1.622 0-.435.068-.8.16-1.12l1.142-4.183c.023-.092.046-.183.046-.229 0-.114-.091-.137-.297-.137h-.434c-.32 0-.343-.16-.343-.251 0-.092.023-.275.366-.298zm-4.526-2.285c-1.029 0-1.737.594-1.737 1.6 0 .663.343 1.074 1.417 1.874.183.137.297.183.411.183a.44.44 0 0 0 .275-.092 2.523 2.523 0 0 0 1.097-2.08c0-.754-.366-1.485-1.463-1.485zm-2.56 5.325c-.96.595-1.28 1.646-1.28 2.355 0 .823.434 1.76 1.828 1.76 1.075 0 1.943-.663 1.943-1.829 0-.686-.365-1.006-1.828-2.148-.183-.16-.32-.229-.435-.229-.068 0-.137.046-.228.091zm2.606-6.011c2.24 0 3.154 1.074 3.154 2.377 0 .846-.48 1.783-1.714 2.423-.275.137-.389.229-.389.343 0 .114.114.228.274.411.526.572.732 1.166.732 2.012 0 2.08-1.943 3.245-4.16 3.245-2.469 0-3.566-1.188-3.566-2.697 0-1.097.571-2.103 2.034-2.697.297-.137.412-.206.412-.32 0-.091-.069-.206-.183-.343-.366-.434-.549-1.005-.549-1.668 0-1.943 1.623-3.086 3.955-3.086z"></path></g></svg>